<svg width="223" height="196" viewBox="0 0 223 196" fill="none" xmlns="http://www.w3.org/2000/svg">
<path d="M179.917 0.0351562C223.886 37.6327 236.142 100.41 203.508 146.779C184.61 173.637 154.611 189.918 121.941 193.709H121.653C113.863 194.593 106.009 194.768 98.1881 194.232L85.5533 194.503C80.8043 194.885 76.0369 194.988 71.2759 194.81H70.7164H70.1207C66.5108 194.665 62.9009 194.34 59.2909 193.871H58.6592C37.4318 190.938 17.2735 182.748 0.015625 170.045L38.3532 127.773L68.0089 123.874C77.8876 130.66 89.2421 134.991 101.13 136.509C111.488 132.877 120.614 126.403 127.465 117.828C146.236 94.0742 141.381 60.3573 118.223 39.3294L144.684 10.0527L179.917 0.0351562Z" fill="url(#paint0_radial_1662_71684)"/>
<path d="M101.078 136.544C124.85 127.32 140.625 104.054 137.755 78.4058C135.924 63.5241 129.028 49.7257 118.225 39.3281C126.888 46.7044 133.388 56.2923 137.033 67.0705C139.357 73.9883 140.266 81.3027 139.706 88.5788C139.146 95.8549 137.13 102.944 133.775 109.425C130.421 115.906 125.798 121.647 120.181 126.306C114.564 130.964 108.068 134.446 101.078 136.544Z" fill="#109D98"/>
<path d="M121.637 193.727C113.847 194.612 105.994 194.787 98.1724 194.251L85.5376 194.522C80.7887 194.904 76.0213 195.006 71.2603 194.828H70.7007H70.1051C66.4952 194.684 62.8852 194.359 59.2753 193.89H58.6435C37.4162 190.957 17.2579 182.767 0 170.064L38.3557 127.774L68.0113 123.875C77.89 130.66 89.2445 134.992 101.133 136.51L121.637 193.727Z" fill="url(#paint1_radial_1662_71684)"/>
<path d="M152.07 30.846C176.455 52.9749 181.563 88.4788 161.799 113.46C140.626 140.245 99.0577 145.209 67.94 123.838L27.8516 168.295C86.8922 211.506 166.473 199.412 203.511 146.779C236.145 100.41 223.89 37.6327 179.92 0.0351562L152.07 30.846Z" fill="url(#paint2_linear_1662_71684)"/>
<path d="M27.8516 168.295C75.9541 203.889 149.759 203.329 192.104 159.053C207.909 143.01 217.924 122.161 220.568 99.7959C224.954 62.415 208.132 24.4564 179.92 0.0351562C214.811 28.6259 232.608 78.6958 217.121 122.033C189.036 199.647 89.9787 215.982 27.8516 168.295Z" fill="#109D98"/>
<path d="M179.92 0.0361347L152.25 31.0095V30.6665C170.625 46.9113 179.487 73.9858 171.058 97.4505C156.185 139.344 101.783 148.297 67.8678 124.164H68.2107C58.2112 134.994 37.9053 157.303 27.8516 168.296C37.9053 157.123 57.7599 134.777 67.8136 123.659C67.8661 123.62 67.9293 123.6 67.9941 123.6C68.059 123.6 68.1222 123.62 68.1746 123.659C102.054 147.448 155.228 138.604 170.318 97.27C178.747 74.0761 170.065 47.164 151.925 31.0095C151.902 30.9891 151.884 30.9641 151.871 30.9361C151.859 30.9081 151.852 30.8777 151.852 30.847C151.852 30.8162 151.859 30.7859 151.871 30.7579C151.884 30.7299 151.902 30.7048 151.925 30.6845L179.938 0L179.92 0.0361347Z" fill="#5DD241"/>
<path d="M110.458 189.144C146.557 188.169 179.714 171.184 199.082 143.695C228.232 102.27 219.983 44.6738 180.328 7.67188L159.589 30.6311C183.053 55.2329 186.14 91.4226 166.033 116.837C153.56 132.612 134.067 141.998 112.551 142.576C97.2031 142.907 82.0777 138.863 68.9432 130.915L35.9844 167.376C57.9898 182.096 83.9884 189.695 110.458 189.144Z" fill="url(#paint3_radial_1662_71684)"/>
<path d="M179.921 0.0351562L144.687 10.0889L118.227 39.3655L152.07 30.846L179.921 0.0351562Z" fill="url(#paint4_linear_1662_71684)"/>
<path d="M118.227 39.3304C129.056 36.3522 141.691 32.8324 151.745 30.5221L165.733 15.1618C170.426 10.0717 175.155 4.99977 179.92 0C172.177 9.13316 160.535 22.0568 152.395 31.0997C141.114 34.132 129.634 36.7131 118.227 39.3304Z" fill="#5DD241"/>
<path d="M144.687 10.0898C136.264 20.2458 127.444 30.0047 118.227 39.3665C126.578 29.1864 135.398 19.4276 144.687 10.0898Z" fill="#5DD241"/>
<path d="M68.0105 123.855L38.3548 127.736L0.179688 169.972L27.8499 168.294L68.0105 123.855Z" fill="url(#paint5_linear_1662_71684)"/>
<path d="M27.8499 168.294C38.8783 155.66 56.4226 136.166 67.7217 123.585L68.0647 124.235C61.1155 125.101 44.6001 127.538 38.6256 127.989C27.3626 140.371 11.4427 157.88 0.179688 169.955C11.0095 157.591 26.9474 139.902 38.0841 127.466C45.5025 126.184 60.4838 124.47 67.9744 123.459C68.0528 123.451 68.1317 123.467 68.201 123.505C68.2704 123.542 68.327 123.599 68.3638 123.669C68.4005 123.738 68.4158 123.817 68.4075 123.896C68.3992 123.974 68.3679 124.048 68.3174 124.109C56.8739 136.653 39.3115 156.003 27.868 168.294H27.8499Z" fill="#5DD241"/>
<defs>
<radialGradient id="paint0_radial_1662_71684" cx="0" cy="0" r="1" gradientUnits="userSpaceOnUse" gradientTransform="translate(140.558 121.286) rotate(-1.52) scale(120.482 120.482)">
<stop stop-color="#247D7F"/>
<stop offset="0.18" stop-color="#1CB8B7"/>
<stop offset="0.34" stop-color="#26CD58"/>
<stop offset="0.55" stop-color="#71FC9B"/>
<stop offset="0.86" stop-color="#7BFFA3"/>
<stop offset="1" stop-color="#F9F9F9"/>
</radialGradient>
<radialGradient id="paint1_radial_1662_71684" cx="0" cy="0" r="1" gradientUnits="userSpaceOnUse" gradientTransform="translate(56.4127 199.301) rotate(-1.52) scale(141.781 141.781)">
<stop stop-color="#1D8E8F"/>
<stop offset="0.18" stop-color="#248183"/>
<stop offset="0.34" stop-color="#26CD58"/>
<stop offset="0.55" stop-color="#71FB9A"/>
<stop offset="0.86" stop-color="#D9FFE4"/>
<stop offset="1" stop-color="#F9F9F9"/>
</radialGradient>
<linearGradient id="paint2_linear_1662_71684" x1="101.843" y1="-16.3752" x2="138.308" y2="205.144" gradientUnits="userSpaceOnUse">
<stop offset="0.09" stop-color="white"/>
<stop offset="0.26" stop-color="#CAF5DE"/>
<stop offset="0.5" stop-color="#4AE378"/>
<stop offset="0.79" stop-color="#26CD58"/>
<stop offset="1" stop-color="#238385"/>
</linearGradient>
<radialGradient id="paint3_radial_1662_71684" cx="0" cy="0" r="1" gradientUnits="userSpaceOnUse" gradientTransform="translate(182.77 271.73) rotate(-1.52) scale(145.643 145.643)">
<stop stop-color="#F9F9F9"/>
<stop offset="0.42" stop-color="#F8F997"/>
<stop offset="1" stop-color="#F8F969" stop-opacity="0"/>
</radialGradient>
<linearGradient id="paint4_linear_1662_71684" x1="137.763" y1="-5.24879" x2="159.912" y2="43.5288" gradientUnits="userSpaceOnUse">
<stop offset="0.09" stop-color="white"/>
<stop offset="0.26" stop-color="#C9FFD9"/>
<stop offset="0.5" stop-color="#2DC98D"/>
<stop offset="0.79" stop-color="#26CD58"/>
<stop offset="1" stop-color="#0C7071"/>
</linearGradient>
<linearGradient id="paint5_linear_1662_71684" x1="14.6283" y1="114.191" x2="59.0035" y2="188.794" gradientUnits="userSpaceOnUse">
<stop offset="0.09" stop-color="white"/>
<stop offset="0.26" stop-color="#BDF3C8"/>
<stop offset="0.5" stop-color="#26CD58"/>
<stop offset="0.79" stop-color="#26CD58"/>
<stop offset="1" stop-color="#07ADA7"/>
</linearGradient>
</defs>
</svg>
