<svg width="183" height="212" viewBox="0 0 183 212" fill="none" xmlns="http://www.w3.org/2000/svg">
<g opacity="0.78">
<path d="M174.018 91.6144C173.754 90.8573 173.472 90.1003 173.191 89.3433C172.909 88.5862 172.68 87.9524 172.416 87.2658C172.152 86.5792 171.8 85.699 171.483 84.9243C171.166 84.1497 170.955 83.5687 170.673 82.8821C170.391 82.1955 169.969 81.2624 169.617 80.4349C169.265 79.6075 169.071 79.1498 168.789 78.4984C168.508 77.847 167.979 76.7378 167.574 75.8927C167.31 75.2942 167.029 74.6956 166.747 74.1322C166.289 73.1463 165.796 72.178 165.303 71.2097C165.057 70.7168 164.828 70.2238 164.582 69.7132C163.825 68.252 163.05 66.7907 162.258 65.3119C136.237 17.4956 94.7409 -10.1625 69.5475 3.55209C68.9428 3.8862 68.3552 4.2505 67.787 4.64361C67.2764 4.97812 66.7834 5.33022 66.3081 5.68233L18.4742 34.3439C-6.71916 48.0586 -6.06777 97.9347 19.953 145.751C45.9739 193.567 87.4698 221.208 112.663 207.511C113.79 206.895 127.417 200.469 128.508 199.676L163.842 176.684C164.751 176.186 165.633 175.639 166.483 175.046L166.659 174.941C174.3 169.554 179.141 160.399 181.201 148.867V148.621C181.36 147.723 181.5 146.86 181.624 145.839C181.624 145.663 181.624 145.487 181.624 145.311C181.729 144.448 181.817 143.55 181.905 142.652C181.905 142.388 181.905 142.142 181.905 141.895C181.905 141.033 182.011 140.135 182.064 139.307C182.064 138.991 182.064 138.674 182.064 138.339C182.064 137.512 182.064 136.667 182.064 135.822C182.064 135.452 182.064 135.082 182.064 134.695C182.064 133.885 182.064 133.058 182.064 132.23C182.064 131.79 182.064 131.367 182.064 130.945C182.064 130.135 181.976 129.325 181.923 128.515C181.923 128.04 181.923 127.582 181.923 127.107C181.923 126.315 181.782 125.505 181.694 124.713C181.694 124.202 181.588 123.691 181.536 123.163C181.483 122.635 181.359 121.596 181.254 120.804C181.148 120.012 181.095 119.713 181.007 119.167C180.919 118.621 180.779 117.618 180.655 116.825L180.338 115.065L179.916 112.776C179.793 112.16 179.652 111.544 179.529 110.928C179.405 110.311 179.212 109.413 179.036 108.656L178.56 106.702C178.384 105.963 178.208 105.223 177.997 104.484C177.786 103.745 177.645 103.111 177.451 102.424C177.257 101.738 177.046 100.98 176.835 100.241L176.201 98.1108L175.532 95.9629L174.793 93.7446L174.018 91.6144ZM75.5686 112.424C60.5511 84.8187 54.1076 56.6852 56.5019 36.1397C76.8009 43.1819 100.11 65.3119 116.994 96.3502C132.047 124.026 138.455 152.195 136.008 172.758C115.709 165.716 92.4169 143.427 75.5686 112.424Z" fill="url(#paint0_linear_1662_71678)"/>
<path d="M112.114 177.211C93.2758 164.658 75.5471 144.236 62.2022 119.694C48.8573 95.1523 41.3398 69.1843 41.0757 46.5437C40.9377 39.6083 41.6292 32.6814 43.1356 25.9102L21.2696 39.0262L21.076 39.1318C10.7592 44.748 5.23109 58.2513 5.45996 77.1596C5.72404 97.3354 12.5021 120.751 24.7379 143.109C36.9737 165.468 52.9066 183.954 69.6141 195.133C85.3533 205.609 99.7018 208.302 110.019 202.686L114.631 200.433C117.747 198.919 124.173 195.802 125.37 195.151L135.722 188.426C127.299 185.987 119.326 182.2 112.114 177.211Z" fill="url(#paint1_radial_1662_71678)"/>
<path d="M112.114 177.211C93.2758 164.658 75.5471 144.236 62.2022 119.694C48.8573 95.1523 41.3398 69.1843 41.0757 46.5437C40.9377 39.6083 41.6292 32.6814 43.1356 25.9102L21.2696 39.0262L21.076 39.1318C10.7592 44.748 5.23109 58.2513 5.45996 77.1596C5.72404 97.3354 12.5021 120.751 24.7379 143.109C36.9737 165.468 52.9066 183.954 69.6141 195.133C85.3533 205.609 99.7018 208.302 110.019 202.686L114.631 200.433C117.747 198.919 124.173 195.802 125.37 195.151L135.722 188.426C127.299 185.987 119.326 182.2 112.114 177.211Z" fill="url(#paint2_radial_1662_71678)"/>
<path d="M166.357 175.029L166.533 174.923C174.174 169.536 179.015 160.381 181.075 148.85V148.603C181.233 147.705 181.374 146.843 181.497 145.821C181.497 145.645 181.497 145.469 181.497 145.293C181.603 144.431 181.691 143.533 181.779 142.635C181.779 142.371 181.779 142.124 181.779 141.878C181.779 141.015 181.885 140.117 181.938 139.29C181.938 138.973 181.938 138.656 181.938 138.322C181.938 137.494 181.938 136.649 181.938 135.804C181.938 135.434 181.938 135.065 181.938 134.677C181.938 133.867 181.938 133.04 181.938 132.212C181.938 131.772 181.938 131.35 181.938 130.927C181.938 130.117 181.849 129.308 181.797 128.498C181.797 128.022 181.797 127.565 181.797 127.089C181.797 126.297 181.656 125.487 181.568 124.695C181.568 124.184 181.462 123.674 181.409 123.146C181.357 122.618 181.233 121.579 181.128 120.787C181.022 119.994 180.969 119.695 180.881 119.149C180.793 118.604 180.652 117.6 180.529 116.808L180.212 115.047L179.79 112.758C179.666 112.142 179.526 111.526 179.402 110.91C179.279 110.294 179.085 109.396 178.909 108.639L178.434 106.685C178.258 105.945 178.082 105.206 177.871 104.466C177.659 103.727 177.519 103.093 177.325 102.407C177.131 101.72 176.92 100.963 176.709 100.223L176.075 98.0931L175.406 95.9453L174.666 93.727L173.945 91.6144C173.681 90.8573 173.399 90.1003 173.117 89.3433C172.836 88.5862 172.607 87.9524 172.343 87.2658C172.078 86.5792 171.726 85.699 171.409 84.9243C171.093 84.1497 170.881 83.5687 170.6 82.8821C170.318 82.1955 169.895 81.2624 169.543 80.4349C169.191 79.6075 168.998 79.1498 168.716 78.4984C168.434 77.847 167.906 76.7378 167.501 75.8927C167.237 75.2942 166.955 74.6956 166.674 74.1322C166.216 73.1463 165.723 72.178 165.23 71.2097C164.983 70.7167 164.755 70.2238 164.508 69.7132C163.751 68.252 162.977 66.7907 162.184 65.3119C136.181 17.4956 94.6675 -10.1625 69.4741 3.55209C52.1152 21.2455 56.4285 36.1749 56.4285 36.1749C76.7275 43.2171 100.037 65.3471 116.921 96.3854C131.973 124.061 138.382 152.23 135.935 172.793C146.093 182.863 163.645 176.701 163.645 176.701C164.555 176.204 165.436 175.657 166.286 175.064L166.357 175.029Z" fill="url(#paint3_linear_1662_71678)"/>
<path d="M69.5455 3.51302C44.3345 17.21 45.0035 67.0862 71.0067 114.903C97.0099 162.719 138.524 190.377 163.717 176.662C188.91 162.948 188.259 113.089 162.256 65.2729C136.252 17.4565 94.7389 -10.2016 69.5455 3.51302ZM157.713 67.7552C182.361 113.054 183.928 159.761 161.234 172.103C138.541 184.444 100.197 157.719 75.5665 112.42C50.9365 67.1214 49.3345 20.4143 72.0454 8.07287C94.7564 -4.26853 133.066 22.4565 157.713 67.7552Z" fill="url(#paint4_linear_1662_71678)"/>
</g>
<defs>
<linearGradient id="paint0_linear_1662_71678" x1="27.4066" y1="-34.365" x2="136.617" y2="205.542" gradientUnits="userSpaceOnUse">
<stop stop-color="#26CD58"/>
<stop offset="0.385" stop-color="#8AEB3B"/>
<stop offset="0.69" stop-color="#07ADA7"/>
<stop offset="1" stop-color="#154A48"/>
</linearGradient>
<radialGradient id="paint1_radial_1662_71678" cx="0" cy="0" r="1" gradientUnits="userSpaceOnUse" gradientTransform="translate(-183.996 84.7435) rotate(-62.06) scale(391.545 391.545)">
<stop stop-color="#F9F9F9"/>
<stop offset="0.33" stop-color="#F8F997"/>
<stop offset="0.62" stop-color="#F8F969" stop-opacity="0"/>
</radialGradient>
<radialGradient id="paint2_radial_1662_71678" cx="0" cy="0" r="1" gradientUnits="userSpaceOnUse" gradientTransform="translate(162.702 111.187) rotate(-62.06) scale(151.389 151.389)">
<stop stop-color="#F9F9F9"/>
<stop offset="0.33" stop-color="#F8F997"/>
<stop offset="0.69" stop-color="#F8F969" stop-opacity="0"/>
</radialGradient>
<linearGradient id="paint3_linear_1662_71678" x1="86.3012" y1="9.1283" x2="175.913" y2="170.446" gradientUnits="userSpaceOnUse">
<stop stop-color="#07ADA7"/>
<stop offset="0.46" stop-color="#26CD58"/>
<stop offset="0.66" stop-color="#07ADA7"/>
<stop offset="1" stop-color="#0A4442"/>
</linearGradient>
<linearGradient id="paint4_linear_1662_71678" x1="53.968" y1="6.3637" x2="180.064" y2="174.755" gradientUnits="userSpaceOnUse">
<stop stop-color="white"/>
<stop offset="0.47" stop-color="#84EB3D"/>
<stop offset="0.83" stop-color="#26CD58"/>
<stop offset="1" stop-color="#26CD58"/>
</linearGradient>
</defs>
</svg>
